<svg xmlns="http://www.w3.org/2000/svg" width="30" height="28" viewBox="0 0 30 28">
  <defs>
    <style>
      .cls-1 {
        fill: #fff;
        fill-rule: evenodd;
      }
    </style>
  </defs>
  <path id="Icon_Path" data-name="Icon Path" class="cls-1" d="M3619,2750.82a2.416,2.416,0,0,1-.71,1.71l-1.45,1.43a2.393,2.393,0,0,1-1.75.72,2.3,2.3,0,0,1-1.73-.72l-5.66-5.58v13.39a2,2,0,0,1-.73,1.61,2.593,2.593,0,0,1-1.74.62h-2.46a2.593,2.593,0,0,1-1.74-.62,2,2,0,0,1-.73-1.61v-13.39l-5.66,5.58a2.438,2.438,0,0,1-3.46,0l-1.45-1.43a2.308,2.308,0,0,1-.73-1.71,2.336,2.336,0,0,1,.73-1.73l12.54-12.39a2.276,2.276,0,0,1,1.73-.7,2.382,2.382,0,0,1,1.75.7l12.54,12.39A2.428,2.428,0,0,1,3619,2750.82Z" transform="translate(-3589 -2736)"/>
</svg>
